<svg width="15" height="28" viewBox="0 0 15 28" fill="none" xmlns="http://www.w3.org/2000/svg">
<path d="M7.33333 27.3333C5.28889 27.3333 3.55556 26.6222 2.13333 25.2C0.711111 23.7778 0 22.0444 0 20V5.99999C0 4.53332 0.522222 3.27777 1.56667 2.23332C2.61111 1.18888 3.86667 0.666656 5.33333 0.666656C6.8 0.666656 8.05556 1.18888 9.1 2.23332C10.1444 3.27777 10.6667 4.53332 10.6667 5.99999V18.6667C10.6667 19.6 10.3444 20.3889 9.7 21.0333C9.05556 21.6778 8.26667 22 7.33333 22C6.4 22 5.61111 21.6778 4.96667 21.0333C4.32222 20.3889 4 19.6 4 18.6667V5.99999H6V18.6667C6 19.0444 6.12778 19.3611 6.38333 19.6167C6.63889 19.8722 6.95556 20 7.33333 20C7.71111 20 8.02778 19.8722 8.28333 19.6167C8.53889 19.3611 8.66667 19.0444 8.66667 18.6667V5.99999C8.66667 5.06666 8.34445 4.27777 7.7 3.63332C7.05556 2.98888 6.26667 2.66666 5.33333 2.66666C4.4 2.66666 3.61111 2.98888 2.96667 3.63332C2.32222 4.27777 2 5.06666 2 5.99999V20C2 21.4667 2.52222 22.7222 3.56667 23.7667C4.61111 24.8111 5.86667 25.3333 7.33333 25.3333C8.8 25.3333 10.0556 24.8111 11.1 23.7667C12.1444 22.7222 12.6667 21.4667 12.6667 20V5.99999H14.6667V20C14.6667 22.0444 13.9556 23.7778 12.5333 25.2C11.1111 26.6222 9.37778 27.3333 7.33333 27.3333Z" fill="url(#paint0_linear_12_757)"/>
<defs>
<linearGradient id="paint0_linear_12_757" x1="14.6667" y1="26.0741" x2="-12.7831" y2="20.9474" gradientUnits="userSpaceOnUse">
<stop stop-color="#1B9EB3"/>
<stop offset="1" stop-color="#07B7D2"/>
</linearGradient>
</defs>
</svg>
