<svg width="32" height="32" viewBox="0 0 32 32" fill="none" xmlns="http://www.w3.org/2000/svg">
<path d="M16 32C24.8366 32 32 24.8366 32 16C32 7.16344 24.8366 0 16 0C7.16345 0 0 7.16344 0 16C0 24.8366 7.16345 32 16 32Z" fill="white"/>
<mask id="mask0_13_1522" style="mask-type:luminance" maskUnits="userSpaceOnUse" x="0" y="0" width="32" height="32">
<path d="M16 32C24.8366 32 32 24.8366 32 16C32 7.16344 24.8366 0 16 0C7.16345 0 0 7.16344 0 16C0 24.8366 7.16345 32 16 32Z" fill="white"/>
</mask>
<g mask="url(#mask0_13_1522)">
<path d="M8.75167 43.1246L6.75887 32.2851C6.03317 28.3341 7.82151 24.6422 10.8366 24.6422H21.6818C24.697 24.6422 26.4853 28.3427 25.7596 32.2851L23.7668 43.1246C23.3694 45.2901 21.5321 46.8999 19.6487 46.8999H12.8697C10.9864 46.8999 9.14908 45.2901 8.75167 43.1246Z" fill="#70A2FF"/>
<path d="M19.5565 22.6638H13.0252V24.6422H19.5565V22.6638Z" fill="#474CA8"/>
<path d="M21.3766 9.24118H11.139C8.6563 9.24118 6.64368 11.2538 6.64368 13.7365V18.2059C6.64368 20.6886 8.6563 22.7012 11.139 22.7012H21.3766C23.8593 22.7012 25.8719 20.6886 25.8719 18.2059V13.7365C25.8719 11.2538 23.8593 9.24118 21.3766 9.24118Z" fill="#70A2FF"/>
<path d="M24.1671 18.0533V13.892C24.1671 12.1568 22.7604 10.7502 21.0252 10.7502H11.4932C9.758 10.7502 8.35136 12.1568 8.35136 13.892V18.0533C8.35136 19.7885 9.758 21.1951 11.4932 21.1951H21.0252C22.7604 21.1951 24.1671 19.7885 24.1671 18.0533Z" fill="#474CA8"/>
<g style="mix-blend-mode:screen">
<path d="M11.3694 12.5673H21.1462C21.6027 12.5667 22.0542 12.6626 22.4711 12.8487C22.888 13.0348 23.2608 13.307 23.5652 13.6472C23.4064 12.9816 23.0248 12.3902 22.4837 11.9712C21.9427 11.5521 21.2746 11.3306 20.5904 11.3434H11.9194C11.2349 11.331 10.5667 11.5526 10.0253 11.9715C9.48386 12.3904 9.1016 12.9816 8.94171 13.6472C9.24727 13.3061 9.62155 13.0336 10.04 12.8475C10.4584 12.6613 10.9114 12.5659 11.3694 12.5673Z" fill="#272DA1"/>
</g>
<path d="M11.6314 16.4608L11.7408 16.5184L12.0288 16.6768C12.1526 16.7401 12.3168 16.8092 12.4867 16.887C12.6566 16.9647 12.8582 17.0425 13.0771 17.1145C14.097 17.4609 15.1676 17.6351 16.2448 17.63C16.3629 17.63 16.576 17.63 16.6912 17.63C16.8064 17.63 16.9791 17.63 17.1087 17.604C17.3967 17.5781 17.6847 17.5464 17.941 17.4975C18.1973 17.4485 18.4709 17.3938 18.7185 17.3333C18.9662 17.2729 19.1994 17.2038 19.4125 17.1231C19.6257 17.0425 19.8272 16.9705 19.9885 16.8956C20.1498 16.8207 20.3226 16.7516 20.4464 16.6854L20.7344 16.5299L20.8438 16.4723C20.8438 16.4723 20.8294 16.5126 20.7977 16.5875C20.7524 16.6948 20.6995 16.7987 20.6393 16.8985C20.4242 17.263 20.1498 17.5891 19.8272 17.8632C19.3656 18.2577 18.8356 18.5641 18.2635 18.7675C17.9424 18.8868 17.6107 18.9755 17.2729 19.0324C17.0959 19.0656 16.917 19.0877 16.7372 19.0986C16.5328 19.1188 16.4233 19.1159 16.2189 19.1246C15.8816 19.1155 15.5455 19.0798 15.2138 19.018C14.8757 18.9625 14.5439 18.8737 14.2232 18.7531C13.6514 18.5509 13.1221 18.2443 12.6624 17.8488C12.3378 17.576 12.0622 17.2497 11.8474 16.8841C11.7862 16.7859 11.7333 16.6828 11.689 16.576L11.6314 16.4608Z" fill="#42F9FF"/>
<path d="M20.8812 14.9028C19.6084 14.2837 18.5054 14.3528 17.2902 14.9028C17.4008 14.5119 17.6361 14.1677 17.9601 13.9227C18.2842 13.6776 18.6794 13.545 19.0857 13.545C19.492 13.545 19.8872 13.6776 20.2113 13.9227C20.5353 14.1677 20.7706 14.5119 20.8812 14.9028Z" fill="#42F9FF"/>
<g style="mix-blend-mode:multiply">
<path d="M21.2354 19.5968H11.2772C10.8131 19.6004 10.3535 19.5067 9.92791 19.3216C9.50233 19.1366 9.12026 18.8645 8.80634 18.5227C8.97491 19.1941 9.36707 19.788 9.91824 20.2067C10.4694 20.6255 11.1468 20.8441 11.8387 20.8265H20.6854C21.3769 20.8434 22.0535 20.6245 22.6041 20.2058C23.1547 19.7871 23.5464 19.1936 23.7149 18.5227C23.4001 18.8657 23.0167 19.1386 22.5895 19.3237C22.1623 19.5087 21.7009 19.6018 21.2354 19.5968Z" fill="#C5C3E6"/>
</g>
<path d="M12.7372 15.4385C13.348 15.4385 13.8431 14.9434 13.8431 14.3326C13.8431 13.7219 13.348 13.2268 12.7372 13.2268C12.1265 13.2268 11.6314 13.7219 11.6314 14.3326C11.6314 14.9434 12.1265 15.4385 12.7372 15.4385Z" fill="#42F9FF"/>
<g style="mix-blend-mode:multiply">
<path d="M19.5565 22.6638H13.0252V23.6515H19.5565V22.6638Z" fill="#C5C3E6"/>
</g>
<path d="M25.9928 18.5227H25.8517V13.7365H25.9928C26.6275 13.7365 27.2362 13.9886 27.685 14.4374C28.1338 14.8862 28.3859 15.4949 28.3859 16.1296C28.3859 16.7643 28.1338 17.373 27.685 17.8218C27.2362 18.2705 26.6275 18.5227 25.9928 18.5227Z" fill="#474CA8"/>
<g style="mix-blend-mode:screen">
<path d="M26.2751 15.0871V14.2491C26.2745 14.2197 26.2808 14.1905 26.2934 14.1639C26.3061 14.1374 26.3247 14.1141 26.3479 14.0959C26.3711 14.0778 26.3981 14.0653 26.427 14.0594C26.4558 14.0535 26.4856 14.0543 26.5141 14.0619C26.8425 14.1606 27.1435 14.3343 27.3934 14.5691C27.6432 14.804 27.8351 15.0937 27.954 15.4154C27.9671 15.4507 27.9696 15.4892 27.9611 15.5259C27.9527 15.5626 27.9336 15.5961 27.9064 15.6221C27.8791 15.6482 27.8448 15.6657 27.8077 15.6724C27.7706 15.6792 27.7324 15.6749 27.6977 15.6602C27.2896 15.4872 26.8651 15.356 26.4306 15.2685C26.388 15.2602 26.3496 15.2377 26.3213 15.2048C26.2931 15.1719 26.2768 15.1304 26.2751 15.0871Z" fill="#272DA1"/>
</g>
<g style="mix-blend-mode:multiply">
<path d="M26.851 17.7163C26.7881 17.7348 26.7221 17.7394 26.6573 17.7298C26.5925 17.7202 26.5306 17.6966 26.4759 17.6607C26.4211 17.6249 26.3748 17.5775 26.3401 17.522C26.3054 17.4665 26.2832 17.404 26.275 17.3391L25.8517 14.2232V18.5227H25.9928C26.4434 18.5218 26.8845 18.3934 27.2651 18.1523C27.6458 17.9113 27.9505 17.5674 28.144 17.1605C27.8848 17.4111 27.2858 17.604 26.851 17.7163Z" fill="#C5C3E6"/>
</g>
<path d="M6.50253 18.5227H6.64363V13.7365H6.50253C5.86784 13.7365 5.25915 13.9886 4.81036 14.4374C4.36156 14.8862 4.10944 15.4949 4.10944 16.1296C4.10944 16.7643 4.36156 17.373 4.81036 17.8218C5.25915 18.2705 5.86784 18.5227 6.50253 18.5227Z" fill="#474CA8"/>
<g style="mix-blend-mode:screen">
<path d="M6.22034 15.0871V14.2491C6.22089 14.2197 6.2146 14.1905 6.20195 14.1639C6.18931 14.1374 6.17067 14.1141 6.1475 14.0959C6.12432 14.0778 6.09725 14.0653 6.06841 14.0594C6.03958 14.0535 6.00976 14.0543 5.98132 14.0619C5.6529 14.1606 5.3519 14.3343 5.10203 14.5691C4.85216 14.804 4.66026 15.0937 4.54144 15.4154C4.52831 15.4507 4.52582 15.4892 4.53428 15.5259C4.54274 15.5626 4.56178 15.5961 4.58904 15.6221C4.61631 15.6482 4.6506 15.6657 4.68769 15.6724C4.72478 15.6792 4.76304 15.6749 4.79774 15.6602C5.20494 15.4876 5.62848 15.3563 6.06195 15.2685C6.10502 15.2607 6.14415 15.2385 6.17293 15.2056C6.20171 15.1726 6.21843 15.1308 6.22034 15.0871Z" fill="#272DA1"/>
</g>
<g style="mix-blend-mode:multiply">
<path d="M5.64152 17.7163C5.70433 17.7343 5.77027 17.7385 5.83485 17.7287C5.89943 17.7188 5.96114 17.6952 6.01578 17.6594C6.07043 17.6237 6.11672 17.5765 6.15153 17.5212C6.18633 17.466 6.20882 17.4038 6.21747 17.3391L6.64368 14.2232V18.5227H6.50257C6.052 18.5218 5.61089 18.3934 5.23022 18.1523C4.84955 17.9113 4.54487 17.5674 4.35138 17.1605C4.61056 17.4111 5.20955 17.604 5.64152 17.7163Z" fill="#C5C3E6"/>
</g>
<g style="mix-blend-mode:multiply">
<path d="M9.77875 24.742L9.552 24.942L12.6155 28.4145L12.8423 28.2144L9.77875 24.742Z" fill="#BAB8D9"/>
</g>
<g style="mix-blend-mode:multiply">
<path d="M22.7339 24.7458L19.6697 28.2177L19.8965 28.4178L22.9606 24.9458L22.7339 24.7458Z" fill="#BAB8D9"/>
</g>
<path d="M14.54 27.6573H17.9755C18.3836 27.6574 18.7867 27.7462 19.157 27.9175C19.5273 28.0888 19.856 28.3385 20.1203 28.6494C20.3846 28.9603 20.5782 29.3248 20.6877 29.7179C20.7972 30.111 20.82 30.5231 20.7545 30.9258L20.0518 35.3319C19.9458 35.9927 19.6078 36.5942 19.0986 37.0285C18.5894 37.4627 17.9421 37.7015 17.2729 37.7019H15.2426C14.573 37.7027 13.9252 37.4643 13.4157 37.0298C12.9062 36.5953 12.5686 35.9932 12.4636 35.3319L11.7581 30.9258C11.6921 30.5228 11.7145 30.1102 11.824 29.7167C11.9335 29.3232 12.1273 28.9583 12.392 28.6473C12.6567 28.3363 12.986 28.0866 13.3569 27.9156C13.7278 27.7447 14.1315 27.6565 14.54 27.6573Z" fill="#474CA8"/>
<path d="M15.2426 36.8899C14.764 36.8891 14.3012 36.718 13.9371 36.4072C13.5731 36.0964 13.3315 35.6663 13.2556 35.1937L12.5529 30.7876C12.5076 30.5003 12.525 30.2065 12.604 29.9265C12.683 29.6465 12.8216 29.3869 13.0104 29.1656C13.1992 28.9442 13.4337 28.7664 13.6977 28.6442C13.9617 28.5221 14.249 28.4585 14.54 28.4579H17.9755C18.2664 28.4585 18.5538 28.5221 18.8178 28.6442C19.0818 28.7664 19.3163 28.9442 19.5051 29.1656C19.6938 29.3869 19.8325 29.6465 19.9114 29.9265C19.9904 30.2065 20.0079 30.5003 19.9626 30.7876L19.2599 35.1937C19.184 35.6663 18.9424 36.0964 18.5783 36.4072C18.2143 36.718 17.7515 36.8891 17.2729 36.8899H15.2426Z" fill="#42F9FF"/>
<g style="mix-blend-mode:screen">
<path d="M12.2333 25.8315L12.7545 26.7415C12.8002 26.8212 12.866 26.8873 12.9454 26.9333C13.0248 26.9793 13.1149 27.0036 13.2067 27.0036H19.5623C19.6545 27.0035 19.745 26.9793 19.8248 26.9333C19.9046 26.8873 19.971 26.8212 20.0173 26.7415L20.5386 25.8315C20.5839 25.7518 20.6075 25.6617 20.6071 25.57C20.6067 25.4783 20.5823 25.3884 20.5362 25.3091C20.4902 25.2298 20.4241 25.164 20.3447 25.1182C20.2653 25.0725 20.1752 25.0483 20.0836 25.0482H12.6854C12.594 25.0488 12.5043 25.0733 12.4253 25.1193C12.3463 25.1653 12.2806 25.2311 12.2349 25.3103C12.1892 25.3895 12.165 25.4793 12.1647 25.5707C12.1645 25.6621 12.1881 25.7521 12.2333 25.8315Z" fill="#235ECC"/>
</g>
<path d="M11.4126 27.5536C11.4126 26.7825 11.1839 26.0286 10.7554 25.3874C10.327 24.7461 9.718 24.2464 9.00551 23.9512C8.29302 23.6561 7.50902 23.5789 6.75265 23.7294C5.99628 23.8798 5.3015 24.2512 4.75619 24.7965C4.21088 25.3418 3.83951 26.0366 3.68906 26.7929C3.53861 27.5493 3.61583 28.3333 3.91095 29.0458C4.20607 29.7583 4.70584 30.3673 5.34706 30.7957C5.98828 31.2242 6.74215 31.4529 7.51335 31.4529C8.54725 31.4521 9.53858 31.041 10.2697 30.31C11.0007 29.5789 11.4118 28.5875 11.4126 27.5536Z" fill="#474CA8"/>
<g style="mix-blend-mode:multiply">
<path d="M7.51334 30.2981C6.57941 30.2979 5.67662 29.9622 4.9694 29.3523C4.26218 28.7423 3.79757 27.8986 3.66021 26.9748C3.63037 27.1654 3.61497 27.3579 3.61414 27.5508C3.61414 28.5849 4.02494 29.5767 4.75619 30.3079C5.48743 31.0392 6.47921 31.45 7.51334 31.45C8.54748 31.45 9.53926 31.0392 10.2705 30.3079C11.0017 29.5767 11.4126 28.5849 11.4126 27.5508C11.4103 27.358 11.3949 27.1655 11.3665 26.9748C11.2291 27.8986 10.7645 28.7423 10.0573 29.3523C9.35006 29.9622 8.44727 30.2979 7.51334 30.2981Z" fill="#C5C3E6"/>
</g>
<g style="mix-blend-mode:screen">
<path d="M7.51338 25.5608C8.29007 25.5571 9.06095 25.6947 9.7884 25.9669C9.84611 25.9792 9.90623 25.9736 9.96061 25.9506C10.015 25.9277 10.061 25.8886 10.0924 25.8386C10.1239 25.7886 10.1392 25.7302 10.1363 25.6713C10.1334 25.6123 10.1125 25.5557 10.0764 25.509C9.74702 25.1547 9.34816 24.8721 8.9047 24.6789C8.46124 24.4857 7.98271 24.386 7.49898 24.386C7.01525 24.386 6.53672 24.4857 6.09326 24.6789C5.6498 24.8721 5.25094 25.1547 4.92159 25.509C4.88546 25.5557 4.86454 25.6123 4.86167 25.6713C4.8588 25.7302 4.87411 25.7886 4.90553 25.8386C4.93695 25.8886 4.98297 25.9277 5.03735 25.9506C5.09173 25.9736 5.15185 25.9792 5.20956 25.9669C5.94599 25.691 6.727 25.5533 7.51338 25.5608Z" fill="#272DA1"/>
</g>
<path d="M21.1923 27.5536C21.1923 26.7825 21.4209 26.0286 21.8494 25.3874C22.2778 24.7461 22.8868 24.2464 23.5993 23.9512C24.3118 23.6561 25.0958 23.5789 25.8522 23.7294C26.6085 23.8798 27.3033 24.2512 27.8486 24.7965C28.3939 25.3418 28.7653 26.0366 28.9158 26.7929C29.0662 27.5493 28.989 28.3333 28.6939 29.0458C28.3987 29.7583 27.899 30.3673 27.2578 30.7957C26.6165 31.2242 25.8627 31.4529 25.0915 31.4529C24.0576 31.4521 23.0662 31.041 22.3352 30.31C21.6041 29.5789 21.193 28.5875 21.1923 27.5536Z" fill="#474CA8"/>
<g style="mix-blend-mode:multiply">
<path d="M25.0915 30.2981C24.1575 30.2979 23.2547 29.9622 22.5475 29.3523C21.8403 28.7423 21.3757 27.8986 21.2383 26.9748C21.2085 27.1654 21.1931 27.3579 21.1923 27.5508C21.1923 28.5849 21.6031 29.5767 22.3343 30.3079C23.0656 31.0392 24.0573 31.45 25.0915 31.45C26.1256 31.45 27.1174 31.0392 27.8486 30.3079C28.5799 29.5767 28.9907 28.5849 28.9907 27.5508C28.9884 27.358 28.973 27.1655 28.9446 26.9748C28.8072 27.8986 28.3426 28.7423 27.6354 29.3523C26.9282 29.9622 26.0254 30.2979 25.0915 30.2981Z" fill="#C5C3E6"/>
</g>
<g style="mix-blend-mode:screen">
<path d="M25.0914 25.5752C25.8681 25.5715 26.639 25.7091 27.3664 25.9813C27.4248 25.9971 27.4866 25.9941 27.5431 25.9728C27.5997 25.9516 27.6481 25.913 27.6815 25.8627C27.715 25.8124 27.7317 25.7528 27.7294 25.6924C27.7272 25.6321 27.706 25.5739 27.6688 25.5263C27.3399 25.1712 26.9412 24.888 26.4977 24.6942C26.0542 24.5005 25.5754 24.4005 25.0914 24.4005C24.6074 24.4005 24.1287 24.5005 23.6852 24.6942C23.2416 24.888 22.8429 25.1712 22.514 25.5263C22.4769 25.5739 22.4557 25.6321 22.4534 25.6924C22.4511 25.7528 22.4679 25.8124 22.5013 25.8627C22.5348 25.913 22.5832 25.9516 22.6397 25.9728C22.6963 25.9941 22.7581 25.9971 22.8164 25.9813C23.5438 25.7089 24.3147 25.5713 25.0914 25.5752Z" fill="#272DA1"/>
</g>
<path d="M16 32.5558C12.7249 32.5558 9.52334 31.5846 6.80022 29.7649C4.0771 27.9453 1.95473 25.359 0.701532 22.3332C-0.551671 19.3073 -0.87942 15.9778 -0.240266 12.7656C0.398887 9.55347 1.97623 6.603 4.2923 4.28734C6.60836 1.97169 9.5591 0.394852 12.7714 -0.243742C15.9836 -0.882337 19.3131 -0.55401 22.3388 0.699719C25.3644 1.95345 27.9503 4.07626 29.7695 6.7997C31.5886 9.52314 32.5593 12.7249 32.5587 16C32.5534 20.3897 30.807 24.5981 27.7027 27.7018C24.5984 30.8056 20.3898 32.5512 16 32.5558ZM16 0.552909C12.9449 0.552909 9.95835 1.45886 7.41809 3.15621C4.87783 4.85356 2.89794 7.26606 1.72878 10.0886C0.55963 12.9112 0.253726 16.0171 0.849755 19.0136C1.44578 22.01 2.91698 24.7624 5.07729 26.9227C7.2376 29.083 9.99001 30.5542 12.9865 31.1503C15.9829 31.7463 19.0888 31.4404 21.9114 30.2712C24.734 29.1021 27.1465 27.1222 28.8438 24.5819C30.5412 22.0417 31.4471 19.0551 31.4471 16C31.4425 11.9046 29.8136 7.9782 26.9177 5.08231C24.0218 2.18641 20.0954 0.557482 16 0.552909Z" fill="white"/>
</g>
</svg>
