<svg width="219" height="218" viewBox="0 0 219 218" fill="none" xmlns="http://www.w3.org/2000/svg">
<g filter="url(#filter0_d_5_3530)">
<circle cx="109.5" cy="109" r="70" fill="#0EB66F" fill-opacity="0.1" shape-rendering="crispEdges"/>
</g>
<mask id="mask0_5_3530" style="mask-type:alpha" maskUnits="userSpaceOnUse" x="39" y="39" width="141" height="140">
<circle cx="109.5" cy="109" r="70" fill="#D9D9D9"/>
</mask>
<g mask="url(#mask0_5_3530)">
<path d="M143.348 117.524L137.947 117.594L81.7648 118.36L76.4539 118.431C77.8446 80.8013 89.2926 62.9339 89.2926 62.9339C89.2926 62.9339 100.378 60.7774 110.949 59.8402H111.03C113.64 59.6084 116.199 59.4572 118.558 59.427H118.749C124.322 59.3665 128.685 60.0115 129.471 62.0572C141.857 94.2447 143.348 117.524 143.348 117.524Z" fill="#55062C"/>
<path d="M137.947 117.574L81.7647 118.339C83.2663 80.8714 92.4771 63.1048 92.4771 63.1048C98.5607 61.6907 104.717 60.6108 110.919 59.87H110.999C113.498 59.5763 116.012 59.4383 118.527 59.4568H118.719C122.75 59.5475 125.773 60.2832 126.388 62.1979C134.984 89.5582 137.372 110.761 137.947 117.574Z" fill="#3F0727"/>
<path d="M85.1307 146.557C85.8052 148.013 86.6079 149.406 87.5291 150.719C91.3686 156.131 97.7477 160.464 108.329 160.363C117.852 160.273 124.201 157.028 128.484 152.704C130.243 150.891 131.733 148.834 132.908 146.597C135.501 141.467 136.88 135.809 136.939 130.06L135.72 129.667L130.197 127.853L115.796 123.147C115.602 121.771 115.481 120.385 115.434 118.995C115.242 114.894 115.262 109.926 115.262 109.926L101.406 110.097C101.541 112.935 101.504 115.779 101.295 118.612C101.208 120.372 100.868 122.109 100.287 123.772L87.1865 128.206L84.4353 129.143L81.7547 130.05C81.6793 135.731 82.8308 141.362 85.1307 146.557Z" fill="#FFA07F"/>
<path d="M105.155 120.618C108.67 121.196 112.277 120.627 115.444 118.995C115.242 114.884 115.252 109.926 115.252 109.926L101.406 110.097C101.541 112.935 101.504 115.779 101.295 118.612C102.361 119.639 103.702 120.335 105.155 120.618Z" fill="#FF7D6F"/>
<path d="M113.912 136.509L114.345 136.227L114.839 135.894C115.041 135.773 115.262 135.622 115.514 135.481C116.008 135.169 116.613 134.826 117.278 134.474C117.943 134.121 118.699 133.738 119.495 133.365C120.291 132.992 121.067 132.68 121.772 132.357C122.478 132.035 123.143 131.853 123.697 131.682C123.969 131.581 124.231 131.511 124.453 131.44L125.027 131.279L125.521 131.128H125.007H124.403C124.161 131.128 123.889 131.128 123.596 131.198C122.042 131.383 120.526 131.808 119.102 132.458C118.323 132.824 117.575 133.252 116.865 133.738C116.289 134.138 115.743 134.579 115.232 135.058C115.031 135.236 114.839 135.424 114.658 135.622C114.511 135.762 114.373 135.91 114.244 136.066L113.912 136.509Z" fill="#FC5B68"/>
<path d="M93.7166 131.178L94.16 131.34L95.3794 131.793C95.8832 131.985 96.4778 132.236 97.1329 132.519C97.7879 132.801 98.4832 133.133 99.2189 133.526C99.9546 133.919 100.64 134.242 101.234 134.534C101.829 134.826 102.424 135.189 102.887 135.481C103.351 135.774 103.734 135.985 103.986 136.157L104.399 136.409L104.086 136.046C103.797 135.717 103.491 135.405 103.169 135.109C102.695 134.661 102.19 134.247 101.658 133.869C101.019 133.408 100.345 132.996 99.6421 132.64C98.9218 132.294 98.1775 132.001 97.415 131.763C96.7896 131.582 96.1535 131.441 95.5104 131.34C94.9561 131.249 94.5026 131.209 94.2003 131.188L93.7166 131.178Z" fill="#FC5B68"/>
<path d="M128.847 100.271C126.69 103.838 126.136 109.744 129.24 112.999C130.721 114.551 136.002 115.679 135.669 112.102C135.574 111.603 135.313 111.152 134.929 110.821C134.545 110.49 134.06 110.298 133.553 110.278C132.861 110.17 132.152 110.277 131.523 110.585C130.894 110.893 130.375 111.388 130.036 112.001C127.527 115.901 127.647 122.663 130.036 126.553C130.084 126.625 130.155 126.678 130.238 126.702C130.321 126.727 130.41 126.723 130.489 126.689C130.569 126.656 130.635 126.596 130.675 126.52C130.716 126.443 130.728 126.355 130.711 126.271C129.834 123.358 129.038 120.698 129.34 117.614C129.457 115.915 129.913 114.257 130.681 112.737C131.285 111.729 133.009 110.368 134.288 111.396C135.568 112.424 134.047 113.583 133.079 113.724C132.507 113.761 131.934 113.665 131.406 113.442C130.635 113.116 129.952 112.613 129.411 111.974C128.87 111.335 128.487 110.578 128.292 109.764C127.393 106.665 127.692 103.341 129.129 100.452C129.22 100.251 128.947 100.069 128.826 100.271H128.847Z" fill="#D1D1D1"/>
<path d="M88.7484 85.1642C88.7484 85.1642 89.2925 98.4463 92.7793 103.374C95.732 107.506 99.9142 114.076 106.606 116.314C107.913 116.754 109.329 116.754 110.637 116.314C117.328 114.076 121.52 107.506 124.463 103.374C127.99 98.4463 128.494 85.1642 128.494 85.1642C128.494 84.2774 128.494 83.4309 128.494 82.6045C128.091 57.4612 108.551 58.8418 108.551 58.8418C108.551 58.8418 89.4538 58.9829 88.7685 83.8642C88.7584 84.2673 88.7484 84.7208 88.7484 85.1642Z" fill="#FFBF90"/>
<path d="M88.7685 83.8642C88.8895 85.9905 89.6352 97.2672 92.7995 101.721C95.7522 105.853 99.9344 112.424 106.626 114.661C107.933 115.102 109.349 115.102 110.657 114.661C117.348 112.424 121.54 105.853 124.483 101.721C128.01 96.7936 128.514 83.5115 128.514 83.5115C128.514 83.2091 128.514 82.9068 128.514 82.6045C128.111 57.4612 108.571 58.8418 108.571 58.8418C108.571 58.8418 89.4538 58.9829 88.7685 83.8642Z" fill="#FFA07F"/>
<path d="M109.458 97.0967C108.956 97.1239 108.471 97.285 108.053 97.5633C107.634 97.8415 107.298 98.2267 107.079 98.6789C107.013 98.7872 106.987 98.9162 107.009 99.0417C107.009 99.2231 107.271 99.3037 107.452 99.3541C108.724 99.7241 110.06 99.8203 111.372 99.6362C113.73 99.3037 110.617 97.0564 109.458 97.0967Z" fill="#FF7D6F"/>
<path d="M110.717 99.0311C110.717 99.0311 110.717 98.89 110.717 98.638C110.717 98.3861 110.717 98.3559 110.717 98.1846C110.717 98.0132 110.717 97.8117 110.717 97.59C110.717 97.3683 110.717 97.1264 110.717 96.8745C110.717 96.6225 110.717 96.3505 110.717 96.0683C110.717 95.4939 110.717 94.8791 110.717 94.2342C110.717 93.5892 110.717 92.9745 110.778 92.4001C110.778 92.1179 110.778 91.8458 110.778 91.5939C110.778 91.342 110.778 91.1001 110.828 90.8784C110.879 90.6567 110.828 90.4652 110.889 90.2838C110.949 90.1024 110.889 89.9613 110.889 89.8303C110.889 89.6993 110.889 89.4373 110.889 89.4373L110.667 89.7699C110.606 89.8807 110.516 90.0117 110.435 90.173C110.335 90.3527 110.244 90.5377 110.163 90.7272C110.053 90.9524 109.959 91.1847 109.881 91.4226C109.782 91.6933 109.698 91.9692 109.629 92.2489C109.466 92.9088 109.378 93.5849 109.367 94.2644C109.36 94.9244 109.424 95.5832 109.558 96.2295C109.617 96.5123 109.691 96.7915 109.78 97.066C109.861 97.328 109.951 97.5597 110.032 97.7714C110.113 97.983 110.213 98.1745 110.294 98.3357C110.375 98.497 110.445 98.638 110.516 98.7489C110.586 98.8597 110.717 99.0311 110.717 99.0311Z" fill="#FC5B68"/>
<path d="M119.777 95.5646C120.099 96.4414 122.498 96.3506 125.118 95.363C127.738 94.3755 129.613 92.8739 129.28 92.0072C128.947 91.1406 126.569 91.2212 123.939 92.2088C121.309 93.1964 119.454 94.6979 119.777 95.5646Z" fill="#FF7D6F"/>
<path d="M88.0228 91.836C87.6701 92.6926 89.474 94.2647 92.0538 95.343C94.6337 96.4212 97.0321 96.5926 97.3848 95.736C97.7375 94.8794 95.9437 93.3073 93.3538 92.229C90.7639 91.1507 88.3856 90.9794 88.0228 91.836Z" fill="#FF7D6F"/>
<path d="M94.6538 82.4337C95.1998 83.2846 96.0162 83.9271 96.9716 84.2578C97.1322 84.0334 97.3398 83.8467 97.58 83.711C97.8202 83.5752 98.0872 83.4936 98.3623 83.4717C99.7227 83.4112 100.882 85.1345 100.972 87.3112C101.063 89.488 100.025 91.3422 98.6646 91.3422C97.3041 91.3422 96.1452 89.6693 96.0646 87.4926C96.0339 86.8605 96.1054 86.2276 96.2762 85.6182C95.4776 84.7091 94.9198 83.6142 94.6538 82.4337Z" fill="#161818"/>
<path d="M98.6545 87.8146C97.6843 88.2079 96.6156 88.2892 95.597 88.0472C94.5784 87.8052 93.6605 87.2519 92.9708 86.4642C93.9411 86.0709 95.0098 85.9896 96.0283 86.2316C97.0469 86.4737 97.9648 87.0269 98.6545 87.8146Z" fill="white"/>
<path d="M123.113 82.4337C122.564 83.2825 121.749 83.9243 120.795 84.2578C120.633 84.0343 120.425 83.8484 120.185 83.7128C119.945 83.5771 119.679 83.4949 119.404 83.4717C118.044 83.4112 116.875 85.1345 116.794 87.3112C116.713 89.488 117.741 91.3422 119.092 91.3422C120.442 91.3422 121.621 89.6693 121.702 87.4926C121.734 86.8598 121.659 86.226 121.48 85.6182C122.284 84.7116 122.846 83.6161 123.113 82.4337Z" fill="#161818"/>
<path d="M119.102 87.8151C120.073 88.2107 121.144 88.2932 122.165 88.0511C123.185 87.809 124.105 87.2544 124.795 86.4647C123.824 86.0691 122.753 85.9866 121.732 86.2286C120.712 86.4707 119.792 87.0253 119.102 87.8151Z" fill="white"/>
<path d="M99.1383 99.8574L99.2088 100.019C99.2826 100.175 99.3668 100.327 99.4608 100.472C99.8269 100.995 100.276 101.455 100.791 101.833C101.535 102.39 102.327 102.879 103.159 103.294C104.188 103.799 105.274 104.178 106.394 104.422C107.528 104.67 108.693 104.748 109.851 104.654C110.794 104.579 111.723 104.376 112.612 104.05C113.204 103.842 113.769 103.565 114.295 103.223C114.442 103.139 114.583 103.045 114.718 102.941L114.859 102.84H114.688L114.204 102.971C113.623 103.114 113.034 103.221 112.441 103.294C110.522 103.491 108.585 103.369 106.706 102.931C104.81 102.492 102.955 101.888 101.164 101.127C100.617 100.899 100.102 100.601 99.6321 100.24C99.4708 100.109 99.3398 99.9984 99.2592 99.9178L99.1383 99.8574Z" fill="#FC5B68"/>
<path d="M104.459 105.027L104.54 105.188C104.623 105.34 104.717 105.484 104.822 105.621C105.176 106.063 105.648 106.397 106.182 106.584C106.717 106.771 107.293 106.804 107.845 106.68C108.011 106.641 108.173 106.587 108.329 106.518L108.5 106.438C108.5 106.438 108.228 106.438 107.845 106.307C107.358 106.196 106.877 106.058 106.404 105.894C105.934 105.731 105.473 105.543 105.024 105.329L104.459 105.027Z" fill="#FF7D6F"/>
<path d="M130.993 85.4273C123.425 83.8754 114.869 69.6057 114.869 69.6057C112.632 73.7576 87.9826 86.8886 87.9826 86.8886C87.319 84.2392 86.8508 81.5446 86.5818 78.8266C83.6191 47.1733 117.822 53.6329 117.822 53.6329C126.166 55.3763 129.915 61.0399 131.366 67.1065C133.503 75.8235 130.993 85.4273 130.993 85.4273Z" fill="#3F0727"/>
<path d="M122.528 64.4755L125.763 69.7259C120.765 67.5378 116.355 64.1985 112.894 59.9809C110.444 64.1077 106.937 67.5064 102.736 69.8266C103.852 67.476 104.642 64.984 105.084 62.4197C99.9272 68.918 93.6637 74.4549 86.5818 78.7754C86.28 75.9374 86.341 73.0725 86.7632 70.2499C90.2197 48.3717 117.822 53.6019 117.822 53.6019C119.989 54.026 122.061 54.8386 123.939 56.0003C128.121 58.6406 130.318 62.7522 131.366 67.0855C128.334 66.5376 125.371 65.6625 122.528 64.4755Z" fill="#55062C"/>
<path d="M117.147 54.9019C117.191 55.4472 117.343 55.9782 117.593 56.4644C117.844 56.9505 118.189 57.3819 118.608 57.7337C115.017 57.0776 111.542 55.8924 108.299 54.2167C105.648 56.8166 102.988 59.4066 100.338 62.0166C100.891 61.315 101.278 60.4972 101.47 59.6245C101.662 58.7518 101.654 57.8469 101.446 56.9779C97.8988 61.3213 92.5476 67.136 86.7632 70.2298C90.2197 48.3516 117.822 53.5818 117.822 53.5818C119.989 54.0059 122.061 54.8184 123.939 55.9802C121.629 56.0216 119.33 55.6566 117.147 54.9019Z" fill="#6F0A32"/>
<path d="M114.648 81.3851L115.061 80.8611C115.333 80.5285 115.726 80.0549 116.24 79.5308C116.817 78.9291 117.456 78.3888 118.144 77.9184C118.934 77.3739 119.815 76.9746 120.744 76.7394C121.636 76.4962 122.573 76.472 123.475 76.6688C124.215 76.8483 124.904 77.1928 125.491 77.6766C125.922 78.0421 126.284 78.4825 126.559 78.9766C126.604 79.0584 126.644 79.1425 126.68 79.2285C126.712 79.2901 126.739 79.3542 126.761 79.42L126.831 79.5812C126.831 79.5812 126.831 79.5208 126.831 79.4099C126.831 79.299 126.831 79.2789 126.831 79.1882C126.831 79.0975 126.831 79.0068 126.831 78.896C126.763 78.2487 126.542 77.6269 126.186 77.082C125.642 76.2322 124.856 75.5651 123.929 75.1673C122.76 74.6956 121.471 74.6108 120.251 74.9254C119.068 75.231 117.984 75.8387 117.106 76.689C116.426 77.3502 115.861 78.1199 115.434 78.9665C115.157 79.5227 114.931 80.1029 114.758 80.6998C114.698 80.9081 114.658 81.0693 114.637 81.1835C114.648 81.3246 114.648 81.3851 114.648 81.3851Z" fill="#55062C"/>
<path d="M92.6283 78.06L92.719 77.9088L92.8298 77.7274L92.9911 77.4956C93.8396 76.4075 95.0731 75.6862 96.4375 75.4801C97.3589 75.3601 98.2957 75.4638 99.1685 75.7825C100.051 76.092 100.86 76.579 101.547 77.2135C102.147 77.7833 102.66 78.4387 103.069 79.1584C103.357 79.6713 103.604 80.2073 103.804 80.7607L103.965 81.2344V81.3956V81.2243C103.965 81.1135 103.965 80.9421 103.965 80.7204C103.993 80.0846 103.939 79.4478 103.804 78.8259C103.637 77.8886 103.277 76.9963 102.746 76.2057C101.993 75.2055 100.963 74.4486 99.7833 74.029C98.5814 73.599 97.2719 73.5742 96.0546 73.9585C95.0927 74.2811 94.243 74.872 93.6058 75.6616C93.195 76.1661 92.8993 76.7542 92.7391 77.3848C92.7123 77.4807 92.6921 77.5784 92.6786 77.677C92.6786 77.7577 92.6786 77.8383 92.6786 77.8887L92.6283 78.06Z" fill="#55062C"/>
<path d="M84.4755 89.3065C84.3748 88.5104 81.9562 69.8167 90.653 58.6005C94.7949 53.2695 100.731 50.5385 108.299 50.5385H108.762C116.713 50.6494 123.002 53.5618 127.426 59.1951C136.183 70.3307 134.48 87.9864 134.48 88.7321L131.668 88.3794C131.668 88.2081 133.261 71.3485 125.33 61.2811C121.46 56.3633 115.887 53.8137 108.762 53.7129C101.849 53.6222 96.4879 55.9501 92.8298 60.6563C84.9794 70.7338 87.2972 88.6112 87.3174 88.7926L84.4755 89.3065Z" fill="#D1D1D1"/>
<path d="M91.7515 101.923C91.7515 101.923 91.4391 101.923 90.915 101.923C90.3964 101.922 89.8783 101.892 89.3631 101.833C86.5616 101.52 82.1577 100.16 81.0895 94.8591C79.457 86.7971 83.4678 83.663 86.2693 82.4638C87.044 82.1221 87.8608 81.8848 88.698 81.7584V85.6987C89.0325 91.2134 90.0583 96.6643 91.7515 101.923Z" fill="white"/>
<path d="M91.7516 101.923C91.7516 101.923 91.4392 101.923 90.9151 101.923C90.3965 101.922 89.8784 101.892 89.3632 101.833C87.5584 95.5239 86.5197 89.0209 86.2694 82.4638C87.0441 82.1221 87.8609 81.8848 88.6981 81.7584V85.6987C89.0326 91.2134 90.0584 96.6643 91.7516 101.923Z" fill="#D1D1D1"/>
<path d="M135.931 94.8998C134.712 100.946 129.169 101.853 126.599 101.954H126.106C125.581 101.954 125.269 101.954 125.269 101.954C126.944 96.702 127.96 91.2621 128.292 85.7595V81.8192C128.905 81.9121 129.506 82.0675 130.086 82.2828C132.888 83.2603 137.695 86.213 135.931 94.8998Z" fill="white"/>
<path d="M126.599 101.943H126.106C125.581 101.943 125.269 101.943 125.269 101.943C126.944 96.6912 127.96 91.2513 128.292 85.7487V81.8084C128.905 81.9013 129.506 82.0566 130.086 82.272C130.62 85.2751 131.557 94.3448 126.599 101.943Z" fill="#D1D1D1"/>
<path d="M130.983 98.7292C131.03 98.9753 131.002 99.2298 130.904 99.4601C130.805 99.6905 130.64 99.8862 130.43 100.022C130.219 100.158 129.973 100.229 129.723 100.224C129.472 100.22 129.229 100.14 129.024 99.9969C128.818 99.8534 128.66 99.6518 128.57 99.4181C128.48 99.1844 128.462 98.9291 128.517 98.6848C128.573 98.4406 128.7 98.2185 128.883 98.0469C129.065 97.8753 129.295 97.762 129.542 97.7215C129.866 97.6684 130.198 97.744 130.467 97.9323C130.737 98.1205 130.922 98.4065 130.983 98.7292Z" fill="#9B9B9B"/>
<path d="M115.806 108.363L115.706 107.728L116.219 107.013C123.193 105.622 127.94 100.2 129.24 98.5577C129.339 98.4309 129.484 98.3476 129.644 98.325C129.803 98.3025 129.965 98.3425 130.096 98.4368C130.166 98.4875 130.225 98.5518 130.27 98.6258C130.314 98.6998 130.344 98.782 130.356 98.8676C130.368 98.9531 130.363 99.0402 130.341 99.1238C130.319 99.2073 130.28 99.2855 130.227 99.3538C128.756 101.188 123.616 107.083 115.806 108.363Z" fill="#D1D1D1"/>
<path d="M117.288 109.461L114.678 109.895C114.164 109.966 113.642 109.835 113.222 109.531C112.801 109.227 112.514 108.773 112.42 108.262C112.349 107.75 112.478 107.229 112.78 106.809C113.082 106.389 113.534 106.101 114.043 106.005L116.653 105.582C116.908 105.538 117.169 105.546 117.421 105.605C117.673 105.663 117.91 105.771 118.12 105.922C118.33 106.073 118.508 106.264 118.644 106.484C118.779 106.704 118.87 106.949 118.91 107.204C118.953 107.459 118.946 107.72 118.887 107.972C118.829 108.224 118.721 108.461 118.57 108.671C118.419 108.881 118.228 109.059 118.008 109.195C117.788 109.33 117.543 109.421 117.288 109.461Z" fill="#161818"/>
<path d="M149.072 199H170.436C169.328 193.9 168.048 188.287 166.688 182.604C162.032 163.134 156.459 142.908 154 140.026C149.203 134.403 135.367 129.727 135.367 129.727L133.613 155.052C135.629 157.49 137.886 162.459 140.093 168.586C143.348 177.615 146.563 189.184 149.072 199Z" fill="#313042"/>
<path d="M85.6043 155.052C80.5655 161.099 74.3578 182.523 70.1454 199H48.7812C53.6688 176.406 62.0432 143.725 65.2679 140.027C66.3944 138.774 67.6821 137.676 69.0974 136.762C72.1097 134.815 75.294 133.149 78.6105 131.783C81.6338 130.493 83.9012 129.768 83.9012 129.768L85.6043 155.052Z" fill="#313042"/>
<path d="M77.5927 188.751C83.0244 195.664 86.3399 196.239 88.043 199H130.52C132.223 196.239 135.558 195.664 140.96 188.751C148.367 179.329 140.234 158.902 139.106 154.981C137.977 151.061 142.975 131.047 142.975 131.047L140.909 130.513H140.768L138.954 130.04C138.954 130.04 124.937 144.148 109.276 148.925C93.6159 144.148 79.6082 130.04 79.6082 130.04C79.6082 130.04 80.6159 151.081 79.4469 155.012C78.278 158.942 70.1857 179.329 77.5927 188.751Z" fill="#313042"/>
<path d="M88.0429 199H90.7437C88.1639 193.719 82.7623 189.759 80.2934 184.266C77.5523 178.22 78.812 171.549 80.2934 164.857C81.2173 160.909 80.9722 156.777 79.5879 152.966C79.5836 152.946 79.5836 152.925 79.5879 152.905C79.6315 153.601 79.5773 154.3 79.4267 154.981C78.3081 158.901 70.1655 179.328 77.5724 188.751C83.0244 195.664 86.3398 196.238 88.0429 199Z" fill="#1F2138"/>
<path d="M130.52 199C132.223 196.238 135.558 195.664 140.96 188.751C148.367 179.328 140.234 158.901 139.106 154.981C138.873 153.505 138.873 152.002 139.106 150.527C139.045 150.648 138.975 150.769 138.904 150.89C137.235 154.062 136.672 157.7 137.302 161.229C138.114 165.923 138.328 170.701 137.937 175.448C137.181 183.873 133.623 192.177 127.385 197.881C126.992 198.244 126.579 198.606 126.196 199H130.52Z" fill="#1F2138"/>
<path d="M111.08 167.71L100.106 199H102.282L113.841 166.904L111.08 167.71Z" fill="#1F2138"/>
<path d="M83.2562 133.355C83.2562 133.355 77.4919 139.402 71.0322 141.79C65.2478 143.916 54.9083 189.446 52.7618 199H48.7308C53.6687 176.406 62.0431 143.725 65.2679 140.026C66.3943 138.773 67.6821 137.675 69.0973 136.761C72.1096 134.815 75.294 133.148 78.6105 131.783L83.2562 133.355Z" fill="#4E4E61"/>
<path d="M135.961 133.355C135.961 133.355 141.716 139.402 148.185 141.79C153.96 143.916 164.309 189.446 166.456 199H170.487C165.549 176.406 157.164 143.725 153.95 140.026C152.825 138.771 151.537 137.673 150.12 136.761C147.112 134.813 143.931 133.146 140.617 131.783L135.961 133.355Z" fill="#4E4E61"/>
<path d="M96.9414 125.021C96.9414 125.021 91.4089 122.411 71.0322 134.383L90.7438 147.685L89.9678 158.428L109.931 176.265L96.9414 125.021Z" fill="#1F2138"/>
<path d="M119.686 124.064C119.686 124.064 128.675 122.401 149.062 134.383L129.35 147.685L130.116 158.418L109.931 176.265L119.686 124.064Z" fill="#1F2138"/>
<path d="M96.9413 125.021L107.926 128.276L120.099 124.014L109.931 176.265L96.9413 125.021Z" fill="#D3D3D3"/>
<path d="M106.495 136.841L107.765 159.455H110.878L111.443 137.496L108.692 134.564L106.495 136.841Z" fill="#E2E2E2"/>
<path d="M110.203 140.701C110.203 140.943 110.132 141.178 109.998 141.379C109.864 141.579 109.673 141.736 109.451 141.828C109.228 141.92 108.983 141.944 108.746 141.897C108.509 141.85 108.292 141.734 108.122 141.564C107.951 141.393 107.835 141.176 107.788 140.939C107.741 140.703 107.765 140.458 107.857 140.235C107.95 140.012 108.106 139.822 108.306 139.688C108.507 139.554 108.743 139.482 108.984 139.482C109.307 139.482 109.617 139.611 109.846 139.839C110.075 140.068 110.203 140.378 110.203 140.701Z" fill="#FAFAFA"/>
<path d="M110.496 146.033C110.496 146.274 110.424 146.51 110.29 146.71C110.156 146.911 109.966 147.067 109.743 147.159C109.52 147.252 109.275 147.276 109.038 147.229C108.802 147.182 108.585 147.066 108.414 146.895C108.243 146.725 108.127 146.507 108.08 146.271C108.033 146.034 108.057 145.789 108.15 145.566C108.242 145.343 108.398 145.153 108.599 145.019C108.799 144.885 109.035 144.814 109.276 144.814C109.6 144.814 109.91 144.942 110.138 145.171C110.367 145.399 110.496 145.71 110.496 146.033Z" fill="#FAFAFA"/>
<path d="M110.496 151.787C110.496 152.028 110.424 152.264 110.29 152.464C110.156 152.665 109.966 152.821 109.743 152.914C109.52 153.006 109.275 153.03 109.038 152.983C108.802 152.936 108.585 152.82 108.414 152.649C108.243 152.479 108.127 152.261 108.08 152.025C108.033 151.788 108.057 151.543 108.15 151.32C108.242 151.098 108.398 150.907 108.599 150.773C108.799 150.639 109.035 150.568 109.276 150.568C109.6 150.568 109.91 150.696 110.138 150.925C110.367 151.153 110.496 151.464 110.496 151.787Z" fill="#FAFAFA"/>
<path d="M101.305 142.214L108.692 134.565L116.441 142.808L120.099 124.014L107.926 128.276L96.9413 125.021L101.305 142.214Z" fill="#FAFAFA"/>
</g>
<defs>
<filter id="filter0_d_5_3530" x="0.5" y="0" width="218" height="218" filterUnits="userSpaceOnUse" color-interpolation-filters="sRGB">
<feFlood flood-opacity="0" result="BackgroundImageFix"/>
<feColorMatrix in="SourceAlpha" type="matrix" values="0 0 0 0 0 0 0 0 0 0 0 0 0 0 0 0 0 0 127 0" result="hardAlpha"/>
<feOffset/>
<feGaussianBlur stdDeviation="19.5"/>
<feComposite in2="hardAlpha" operator="out"/>
<feColorMatrix type="matrix" values="0 0 0 0 0.0564062 0 0 0 0 0.7125 0 0 0 0 0.436941 0 0 0 0.25 0"/>
<feBlend mode="normal" in2="BackgroundImageFix" result="effect1_dropShadow_5_3530"/>
<feBlend mode="normal" in="SourceGraphic" in2="effect1_dropShadow_5_3530" result="shape"/>
</filter>
</defs>
</svg>
