<svg width="17" height="16" viewBox="0 0 17 16" fill="none" xmlns="http://www.w3.org/2000/svg">
<path d="M13.1752 3.43803C12.899 3.2392 11.7182 2.43906 10.5375 2.43667C8.64321 2.43667 6.20114 4.48971 6.19654 7.26143C6.19424 9.53965 7.83763 11.7819 10.1186 12.0359C11.785 12.2227 13.4698 11.31 14.4342 9.70016C14.524 9.60433 14.8301 9.30488 15.249 9.31446C15.7968 9.32644 16.3308 9.86785 16.432 10.6488C16.3285 10.989 16.1328 11.4801 15.7668 11.9832C15.486 12.3689 15.1891 12.642 14.9521 12.8312C14.5976 13.1403 12.7287 14.7022 10.0196 14.4483C7.32435 14.1967 5.75692 12.3281 5.38406 11.8562C3.7798 9.81515 3.24581 6.7871 4.42196 4.15672C4.55086 3.86685 6.06995 0.618399 9.6007 0.0745951C12.075 -0.306307 14.5792 0.790883 16.1121 2.92298C16.4665 3.32304 16.5908 3.86685 16.432 4.33399C16.2663 4.8227 15.8106 5.17725 15.371 5.20599C14.5976 5.2587 14.3214 4.25254 13.1752 3.43564V3.43803Z" fill="#1D9FB3"/>
<path d="M7.30582 7.21349C7.29201 7.62314 7.63726 7.95852 8.02164 7.95852C8.39221 7.95852 8.73746 7.64709 8.73746 7.23984C8.73746 6.83259 8.39451 6.52116 8.02164 6.52116C7.65567 6.52116 7.31963 6.823 7.30582 7.21349Z" fill="black"/>
<path d="M3.31252 4.87545C1.70826 4.71734 0.440045 6.0493 0.50219 7.39084C0.552827 8.50001 1.50801 9.54449 2.79464 9.67625C2.97417 10.4333 3.52427 12.297 5.18607 13.859C7.10566 15.6653 9.26922 15.9024 9.92059 15.9647C11.8287 16.1444 13.3178 15.5958 14.0383 15.2724C14.2109 15.3275 14.8899 15.5191 15.5435 15.143C16.1213 14.81 16.6506 14.0458 16.432 13.5763C16.211 13.1068 15.3157 13.102 14.7541 13.32C14.6436 13.3631 13.983 13.6194 13.792 14.2686C13.7413 14.4411 13.7367 14.5968 13.7437 14.7046C13.0992 15.0065 11.6975 15.5575 9.89757 15.373C7.65575 15.1406 6.13666 13.9069 5.43465 13.217C3.61634 11.4298 3.18593 9.269 3.06624 8.41616C2.85219 6.87099 3.10997 5.60132 3.31252 4.87305V4.87545Z" fill="black"/>
<path d="M9.86539 7.21349C9.85158 7.62314 10.1968 7.95852 10.5812 7.95852C10.9518 7.95852 11.297 7.64709 11.297 7.23984C11.297 6.83259 10.9541 6.52116 10.5812 6.52116C10.2152 6.52116 9.8792 6.823 9.86539 7.21349Z" fill="black"/>
<path d="M12.4823 7.21349C12.4685 7.62314 12.8138 7.95852 13.1981 7.95852C13.5687 7.95852 13.914 7.64709 13.914 7.23984C13.914 6.83259 13.571 6.52116 13.1981 6.52116C12.8322 6.52116 12.4961 6.823 12.4823 7.21349Z" fill="black"/>
</svg>
