<svg width="41" height="36" viewBox="0 0 41 36" fill="none" xmlns="http://www.w3.org/2000/svg">
<path d="M34.7337 21.5479C34.1178 19.3271 34.3124 16.7633 34.7758 14.5265C34.9443 13.7241 35.1449 12.7631 34.5752 12.1613C34.1038 11.6598 33.2632 11.6698 32.6634 12.0068C32.0636 12.3438 31.6603 12.9356 31.2872 13.5214C30.2437 15.1946 29.4045 16.9868 28.7876 18.8597C26.7405 16.6107 25.0974 14.0249 23.9308 11.2164C23.5596 10.3458 23.1785 9.41091 22.5766 8.67667C22.3931 8.44685 22.1602 8.26119 21.8953 8.13341C21.6303 8.00563 21.3401 7.939 21.046 7.93842C20.6895 7.94222 20.3431 8.05741 20.0553 8.26784C19.7675 8.47828 19.5528 8.77344 19.4411 9.11199C18.6627 11.1422 21.2947 14.378 22.1895 16.0612C22.4021 16.4624 22.6228 16.9037 22.5345 17.3491C22.1513 17.2388 21.8845 16.9037 21.6438 16.5868C20.2536 14.7592 18.7951 13.0099 17.4049 11.1703C17.0879 10.755 16.7609 10.3297 16.3075 10.0709C15.493 9.6055 14.2753 9.94453 14.0607 10.9155C13.9943 11.3305 14.04 11.7558 14.1931 12.1472C14.6324 13.4974 15.481 14.6709 16.3196 15.8184L19.8363 20.6331C18.5263 19.8648 17.6296 18.5367 16.4961 17.5618C15.1159 16.3701 13.9644 14.9538 12.528 13.8003C12.3068 13.5954 12.0378 13.4492 11.7456 13.375C11.5547 13.349 11.3605 13.3622 11.1748 13.4137C10.9892 13.4653 10.816 13.5541 10.6658 13.6749C10.5156 13.7956 10.3916 13.9456 10.3013 14.1158C10.2111 14.286 10.1564 14.4729 10.1407 14.6649C10.1568 15.1628 10.3049 15.6475 10.57 16.0692C11.3925 17.5718 12.5761 18.7795 13.7297 20.0253C14.819 21.2049 15.7839 22.5189 16.785 23.7807C16.8833 23.9051 16.9575 24.1338 16.805 24.1819C14.8732 22.886 13.4709 21.0684 11.6493 19.6622C10.9311 19.1085 9.27408 18.5929 9.13365 20.0172C9.01931 21.1908 10.5801 22.9522 11.0495 23.5661C12.3475 25.2692 13.9443 26.83 15.1721 28.5513C19.9346 35.2356 27.4415 38.5618 33.7186 31.3197C36.6094 27.9915 35.819 25.4719 34.7337 21.5479Z" fill="white"/>
<path d="M26.9559 29.1852C26.8781 29.1851 26.8024 29.1606 26.7393 29.115C25.705 28.3859 24.4818 27.9718 23.2174 27.9227C21.9529 27.8735 20.7013 28.1915 19.6136 28.8382C19.5306 28.8818 19.4343 28.8922 19.3439 28.8674C19.2536 28.8426 19.1761 28.7843 19.1271 28.7045C19.0781 28.6246 19.0613 28.5292 19.0801 28.4374C19.099 28.3456 19.1519 28.2644 19.2284 28.2103C20.3066 27.5711 21.5305 27.2187 22.7835 27.1868C24.0365 27.1548 25.2768 27.4443 26.3862 28.0277C26.2388 27.0346 26.354 26.0201 26.7204 25.0853C27.0867 24.1505 27.6915 23.3279 28.4746 22.6995C28.5128 22.67 28.5564 22.6483 28.603 22.6356C28.6496 22.623 28.6982 22.6196 28.7461 22.6258C28.7939 22.6319 28.8401 22.6475 28.882 22.6715C28.9239 22.6955 28.9606 22.7275 28.9901 22.7657C29.0197 22.8039 29.0413 22.8475 29.054 22.8941C29.0666 22.9407 29.07 22.9893 29.0638 23.0372C29.0577 23.085 29.0422 23.1312 29.0182 23.1731C28.9942 23.215 28.9621 23.2517 28.9239 23.2812C28.1352 23.9124 27.5573 24.7686 27.2671 25.7362C26.9768 26.7037 26.9879 27.7367 27.299 28.6978C27.3182 28.7531 27.3239 28.8122 27.3156 28.8702C27.3073 28.9282 27.2852 28.9833 27.2512 29.031C27.2173 29.0788 27.1724 29.1177 27.1203 29.1445C27.0682 29.1713 27.0105 29.1853 26.9519 29.1852H26.9559Z" fill="#633A1E"/>
<path d="M9.79167 31.2756C9.71721 31.2757 9.64351 31.2607 9.57501 31.2315C8.55158 30.8053 7.64817 30.1348 6.94383 29.2787C6.23949 28.4226 5.75566 27.4069 5.53469 26.3205C5.51701 26.249 5.51382 26.1747 5.52532 26.1019C5.53682 26.0292 5.56278 25.9594 5.60166 25.8969C5.64054 25.8343 5.69155 25.7802 5.75169 25.7376C5.81184 25.6951 5.87989 25.665 5.95183 25.6492C6.02378 25.6334 6.09817 25.6322 6.1706 25.6456C6.24303 25.659 6.31205 25.6868 6.37358 25.7273C6.4351 25.7678 6.4879 25.8202 6.52884 25.8814C6.56979 25.9427 6.59806 26.0115 6.61198 26.0838C6.79116 27.0014 7.19654 27.8598 7.79137 28.5811C8.38621 29.3023 9.15167 29.8638 10.0184 30.2144C10.1346 30.2651 10.23 30.3541 10.2884 30.4667C10.3469 30.5792 10.365 30.7084 10.3396 30.8327C10.3142 30.957 10.247 31.0688 10.1491 31.1494C10.0512 31.23 9.92853 31.2746 9.8017 31.2756H9.79167Z" fill="#FFD233"/>
<path d="M7.9581 36C7.8967 35.9996 7.83575 35.9895 7.77755 35.9699C3.78739 34.5877 0.663866 30.6497 0.0058603 26.166C-0.0154219 26.0211 0.0217638 25.8735 0.109235 25.756C0.196706 25.6384 0.327298 25.5604 0.472283 25.5391C0.617268 25.5178 0.764769 25.555 0.882337 25.6425C0.999906 25.73 1.07791 25.8606 1.09919 26.0055C1.70103 30.092 4.52765 33.6769 8.13865 34.9267C8.26212 34.9693 8.3665 35.0542 8.43321 35.1665C8.49992 35.2788 8.52464 35.4111 8.50298 35.5398C8.48131 35.6686 8.41467 35.7856 8.3149 35.8698C8.21512 35.9541 8.08869 36.0002 7.9581 36Z" fill="white"/>
<path d="M34.2804 9.16417C34.1782 9.16414 34.078 9.13583 33.9909 9.08236C33.9038 9.0289 33.8332 8.95237 33.7869 8.86125C33.149 7.58937 31.4899 6.45391 30.2401 6.42983C30.1677 6.42853 30.0962 6.41296 30.0297 6.38403C29.9633 6.35509 29.9032 6.31335 29.8529 6.26119C29.8026 6.20902 29.7631 6.14746 29.7366 6.08002C29.7101 6.01258 29.6971 5.94057 29.6985 5.86812C29.699 5.79543 29.714 5.72357 29.7426 5.65677C29.7713 5.58997 29.813 5.52956 29.8653 5.4791C29.9177 5.42865 29.9796 5.38915 30.0474 5.36294C30.1152 5.33673 30.1875 5.32433 30.2602 5.32647C32.1218 5.36057 34.0517 6.93136 34.7739 8.36574C34.8175 8.44993 34.8386 8.54397 34.8351 8.63873C34.8317 8.73348 34.8037 8.82572 34.754 8.90649C34.7044 8.98725 34.6347 9.05379 34.5517 9.09965C34.4687 9.14551 34.3752 9.16912 34.2804 9.16818V9.16417Z" fill="#FFD233"/>
<path d="M40.3267 9.59752C40.2107 9.59743 40.0976 9.56074 40.0036 9.49267C39.9096 9.42459 39.8394 9.32861 39.8031 9.21836C38.1982 4.42977 34.168 1.24406 29.5138 1.10363C29.4413 1.10139 29.37 1.0849 29.304 1.05511C29.2379 1.02531 29.1783 0.982797 29.1287 0.929985C29.079 0.877173 29.0403 0.815102 29.0146 0.747311C28.989 0.679521 28.9769 0.607341 28.9791 0.534893C28.9814 0.462445 28.9979 0.391147 29.0277 0.325071C29.0575 0.258995 29.1 0.199435 29.1528 0.14979C29.2056 0.100145 29.2677 0.0613896 29.3355 0.0357338C29.4032 0.0100781 29.4754 -0.00197584 29.5479 0.000263454C34.6695 0.154734 39.105 3.63735 40.8503 8.87131C40.8961 9.01018 40.8851 9.16154 40.8197 9.29234C40.7543 9.42313 40.6399 9.52275 40.5013 9.56943C40.4448 9.58754 40.386 9.59701 40.3267 9.59752Z" fill="white"/>
</svg>
