<svg width="24" height="9" viewBox="0 0 24 9" fill="none" xmlns="http://www.w3.org/2000/svg">
<path d="M12 0C13.9667 0 15.9042 0.395833 17.8125 1.1875C19.7208 1.97917 21.4167 3.16667 22.9 4.75C23.1 4.95 23.2 5.18333 23.2 5.45C23.2 5.71667 23.1 5.95 22.9 6.15L20.6 8.4C20.4167 8.58333 20.2042 8.68333 19.9625 8.7C19.7208 8.71667 19.5 8.65 19.3 8.5L16.4 6.3C16.2667 6.2 16.1667 6.08333 16.1 5.95C16.0333 5.81667 16 5.66667 16 5.5V2.65C15.3667 2.45 14.7167 2.29167 14.05 2.175C13.3833 2.05833 12.7 2 12 2C11.3 2 10.6167 2.05833 9.94999 2.175C9.28332 2.29167 8.63332 2.45 7.99999 2.65V5.5C7.99999 5.66667 7.96665 5.81667 7.89999 5.95C7.83332 6.08333 7.73332 6.2 7.59999 6.3L4.69999 8.5C4.49999 8.65 4.27915 8.71667 4.03749 8.7C3.79582 8.68333 3.58332 8.58333 3.39999 8.4L1.09999 6.15C0.899988 5.95 0.799988 5.71667 0.799988 5.45C0.799988 5.18333 0.899988 4.95 1.09999 4.75C2.56665 3.16667 4.25832 1.97917 6.17499 1.1875C8.09165 0.395833 10.0333 0 12 0Z" fill="white"/>
</svg>
