<svg width="151" height="130" viewBox="0 0 151 130" fill="none" xmlns="http://www.w3.org/2000/svg">
<g clip-path="url(#clip0_5_3668)">
<path opacity="0.21" d="M147.57 73.4163C147.572 84.2271 145.185 94.9048 140.582 104.686C135.978 114.468 129.27 123.112 120.938 130H27.3705C19.0377 123.112 12.3293 114.468 7.7247 104.687C3.12009 94.9053 0.732974 84.2274 0.733948 73.4163C0.733948 32.8704 33.6043 0 74.1542 0C114.704 0 147.57 32.8704 147.57 73.4163Z" fill="url(#paint0_linear_5_3668)"/>
<path d="M113.75 69.1552C115.193 69.7043 116.441 70.6692 117.336 71.9277C118.231 73.1863 118.733 74.682 118.777 76.2257C118.822 77.7694 118.408 79.2916 117.588 80.6C116.767 81.9083 115.577 82.944 114.168 83.5759C112.759 84.2078 111.194 84.4076 109.671 84.1501C108.149 83.8926 106.737 83.1892 105.614 82.129C104.491 81.0688 103.708 79.6994 103.363 78.194C103.018 76.6886 103.128 75.1149 103.678 73.6718C104.415 71.7377 105.89 70.1754 107.779 69.3284C109.667 68.4815 111.815 68.4191 113.75 69.1552Z" fill="white"/>
<path d="M124.931 75.9001C125.72 76.2011 126.402 76.7293 126.891 77.4177C127.379 78.1062 127.653 78.9241 127.677 79.7681C127.701 80.612 127.474 81.4441 127.025 82.159C126.576 82.874 125.925 83.4398 125.154 83.7849C124.384 84.1299 123.528 84.2388 122.696 84.0976C121.863 83.9565 121.092 83.5717 120.478 82.9919C119.864 82.4122 119.436 81.6634 119.248 80.8404C119.06 80.0174 119.12 79.157 119.42 78.3681C119.62 77.8438 119.92 77.364 120.305 76.9561C120.69 76.5482 121.152 76.2202 121.664 75.991C122.176 75.7617 122.728 75.6357 123.289 75.6201C123.849 75.6045 124.408 75.6997 124.931 75.9001Z" fill="white"/>
<path d="M111.813 20.5066C112.414 20.7357 112.934 21.1381 113.307 21.6627C113.68 22.1873 113.889 22.8107 113.907 23.4541C113.926 24.0974 113.753 24.7318 113.411 25.2771C113.069 25.8224 112.574 26.254 111.986 26.5175C111.399 26.7809 110.747 26.8644 110.112 26.7573C109.478 26.6502 108.889 26.3573 108.421 25.9157C107.953 25.4741 107.626 24.9036 107.482 24.2763C107.338 23.649 107.383 22.9931 107.612 22.3915C107.764 21.9918 107.993 21.6259 108.286 21.3148C108.58 21.0037 108.932 20.7535 109.322 20.5785C109.712 20.4034 110.133 20.307 110.56 20.2946C110.988 20.2823 111.413 20.3543 111.813 20.5066Z" fill="#E8F5F5"/>
<path d="M124.037 48.1694C124.366 48.2951 124.65 48.5154 124.854 48.8027C125.058 49.0899 125.172 49.4311 125.182 49.7832C125.192 50.1352 125.097 50.4822 124.91 50.7805C124.722 51.0787 124.451 51.3147 124.129 51.4587C123.808 51.6026 123.451 51.6481 123.104 51.5893C122.757 51.5305 122.435 51.3701 122.179 51.1283C121.922 50.8865 121.744 50.5743 121.665 50.231C121.586 49.8877 121.611 49.5288 121.737 49.1997C121.819 48.9806 121.945 48.78 122.105 48.6095C122.266 48.439 122.459 48.3019 122.672 48.2062C122.886 48.1104 123.117 48.0579 123.351 48.0516C123.585 48.0453 123.818 48.0853 124.037 48.1694Z" fill="white"/>
<path d="M30.3297 108.715C30.3305 110.259 29.8732 111.769 29.0156 113.054C28.158 114.338 26.9387 115.339 25.512 115.931C24.0852 116.522 22.5151 116.677 21.0003 116.376C19.4854 116.075 18.094 115.331 17.0018 114.239C15.9097 113.147 15.1661 111.756 14.865 110.241C14.5639 108.726 14.7188 107.156 15.3102 105.729C15.9016 104.302 16.9029 103.083 18.1874 102.226C19.4719 101.368 20.9819 100.911 22.5264 100.911C24.596 100.911 26.5808 101.734 28.0442 103.197C29.5076 104.66 30.3297 106.645 30.3297 108.715Z" fill="white"/>
<path d="M28.0094 75.7645C28.0071 76.6083 27.7547 77.4325 27.2842 78.1329C26.8136 78.8334 26.1461 79.3787 25.3658 79.7C24.5855 80.0213 23.7276 80.1041 22.9002 79.938C22.0729 79.7719 21.3134 79.3644 20.7175 78.7669C20.1217 78.1694 19.7163 77.4087 19.5525 76.5809C19.3888 75.7531 19.474 74.8954 19.7975 74.116C20.1209 73.3367 20.6681 72.6706 21.3699 72.2021C22.0717 71.7335 22.8966 71.4834 23.7404 71.4834C24.3022 71.4829 24.8585 71.5934 25.3775 71.8085C25.8964 72.0236 26.3678 72.3391 26.7645 72.7369C27.1612 73.1347 27.4754 73.6069 27.689 74.1265C27.9026 74.646 28.0115 75.2027 28.0094 75.7645Z" fill="white"/>
<path d="M138.569 125.795V127.636C138.569 128.271 138.317 128.881 137.867 129.33C137.418 129.78 136.809 130.032 136.173 130.032H13.8606C13.2251 130.032 12.6156 129.78 12.1663 129.33C11.7169 128.881 11.4645 128.271 11.4645 127.636V125.795C11.4645 125.159 11.7169 124.55 12.1663 124.101C12.6156 123.651 13.2251 123.399 13.8606 123.399H136.185C136.821 123.399 137.43 123.651 137.879 124.101C138.329 124.55 138.581 125.159 138.581 125.795" fill="url(#paint1_linear_5_3668)"/>
<path d="M130.646 19.041C129.854 18.4622 128.958 18.0406 128.006 17.7991C128.006 17.7192 128.006 17.6393 128.006 17.5595C127.988 15.7344 127.324 13.9748 126.133 12.5917C124.943 11.2086 123.301 10.2911 121.499 10.0014C119.697 9.71178 117.851 10.0686 116.286 11.0089C114.722 11.9491 113.541 13.4122 112.951 15.1394H112.552C110.501 15.1394 108.535 15.954 107.085 17.4039C105.635 18.8538 104.82 20.8203 104.82 22.8708C104.82 23.0345 104.82 23.1943 104.82 23.354C104.854 23.8452 105.073 24.3052 105.434 24.6405C105.794 24.9758 106.269 25.1612 106.761 25.1591H131.521C131.831 25.1568 132.137 25.0796 132.412 24.9341C132.686 24.7885 132.922 24.5789 133.098 24.323C133.274 24.0671 133.387 23.7725 133.425 23.4641C133.463 23.1556 133.426 22.8425 133.318 22.5513C132.782 21.1463 131.849 19.927 130.634 19.041" fill="url(#paint2_linear_5_3668)"/>
<path d="M147.455 99.0945C146.663 98.5141 145.767 98.0924 144.815 97.8525C144.815 97.7726 144.815 97.6927 144.815 97.6129C144.815 95.7745 144.16 93.9964 142.967 92.5974C141.774 91.1985 140.122 90.2703 138.307 89.9794C136.492 89.6885 134.632 90.0539 133.062 91.0101C131.492 91.9662 130.314 93.4506 129.74 95.1968C129.612 95.1968 129.48 95.1968 129.34 95.1968C128.325 95.1963 127.319 95.3959 126.38 95.7842C125.442 96.1725 124.589 96.7419 123.871 97.4599C123.152 98.1778 122.582 99.0303 122.194 99.9686C121.805 100.907 121.605 101.913 121.605 102.928C121.605 103.092 121.605 103.252 121.605 103.415C121.637 103.907 121.856 104.367 122.215 104.703C122.575 105.039 123.049 105.226 123.542 105.224H148.301C148.614 105.225 148.922 105.151 149.199 105.006C149.476 104.862 149.714 104.653 149.893 104.397C150.072 104.14 150.185 103.844 150.225 103.534C150.264 103.224 150.227 102.91 150.118 102.617C149.583 101.211 148.651 99.9912 147.435 99.1064" fill="url(#paint3_linear_5_3668)"/>
<path d="M19.044 74.798C18.5802 73.5696 18.5689 72.2162 19.0121 70.9802C19.8667 68.7918 22.3147 67.3381 25.1261 67.434C23.3535 68.0706 21.8123 69.2237 20.7013 70.7446C19.8347 71.9448 19.2666 73.3344 19.044 74.798Z" fill="#D6EBEB"/>
<path d="M123.37 104.198C122.906 102.971 122.894 101.619 123.338 100.384C124.193 98.1918 126.637 96.7382 129.452 96.8341C127.681 97.4728 126.14 98.6255 125.027 100.145C124.161 101.345 123.593 102.735 123.37 104.198Z" fill="#FBFDFD"/>
<path d="M106.561 24.0688C106.098 22.8406 106.085 21.4877 106.525 20.251C107.38 18.0626 109.828 16.6089 112.639 16.7048C110.867 17.3425 109.327 18.4954 108.215 20.0154C107.351 21.2166 106.784 22.6058 106.561 24.0688Z" fill="#FBFDFD"/>
<path d="M61.6226 118.327L46.5153 123.303C46.2902 123.375 46.0458 123.356 45.835 123.249C45.6242 123.142 45.464 122.956 45.3891 122.732L30.4535 77.3859C30.3852 77.1629 30.4066 76.9221 30.5133 76.7147C30.62 76.5073 30.8034 76.3498 31.0245 76.2757L46.1319 71.2998C46.3565 71.2276 46.6005 71.2466 46.8112 71.3527C47.0219 71.4588 47.1824 71.6435 47.2581 71.8669L60.5923 112.361L61.2952 114.485L62.1937 117.217C62.262 117.44 62.2405 117.681 62.1339 117.888C62.0272 118.096 61.8438 118.253 61.6226 118.327Z" fill="#4050A2"/>
<path d="M125.642 91.5107C125.151 95.3764 122.096 98.0001 118.985 99.9449C111.326 104.737 105.116 105.476 95.0522 108.507C80.8154 112.792 75.54 113.016 68.0442 113.415C67.526 113.441 67.0117 113.313 66.5671 113.045C66.1224 112.778 65.7677 112.384 65.5483 111.913C65.5002 111.818 65.4601 111.72 65.4285 111.618L52.4856 72.322C52.3649 71.9584 52.326 71.5727 52.3716 71.1923C52.4171 70.812 52.5461 70.4464 52.7491 70.1216C53.7501 68.5046 54.6169 66.8084 55.3409 65.0498C56.6108 61.9549 56.6268 60.6091 57.4016 57.9374C57.76 56.6546 58.229 55.4053 58.8033 54.2035C60.9518 49.7787 63.284 46.4082 66.1034 41.6959C68.4515 37.7743 69.6256 35.8135 69.993 34.4877C72.2174 26.5207 66.6265 21.7165 69.2422 17.7909C71.0753 15.0394 75.9833 14.1528 79.3178 15.4867C85.8472 18.0984 88.7624 30.2107 86.554 39.0083C86.2305 40.3102 83.8345 44.1519 84.7929 48.5607C84.9806 49.4353 85.0764 49.8706 85.2961 50.0902C88.1394 52.9256 102.384 43.0457 112.276 42.5585C113.623 42.4716 114.971 42.7257 116.194 43.2973C117.227 43.8008 118.12 44.5494 118.797 45.4778C121.038 48.5048 120.395 51.9991 118.797 55.0621L118.57 55.4615C118.455 55.6222 118.393 55.815 118.394 56.0126C118.43 56.2881 118.682 56.4599 118.941 56.5757L119.057 56.6236C120.003 56.995 121.018 57.2186 121.884 57.7537C124.432 59.3232 126.233 64.367 124.64 67.0666C124.033 68.0929 122.975 68.7438 121.98 69.3988C121.858 69.4623 121.759 69.563 121.697 69.6863C121.569 70.0137 121.964 70.2813 122.28 70.4291C126.956 72.6095 128.27 79.2147 124.356 82.729C123.959 83.0407 123.595 83.3926 123.27 83.7793C123.109 83.9752 123.001 84.2092 122.956 84.4588C122.912 84.7084 122.932 84.9653 123.015 85.205C123.205 85.5309 123.464 85.8116 123.773 86.0276C125.275 87.3495 125.898 89.5139 125.642 91.5107Z" fill="#ECB654"/>
<path d="M39.4708 74.6063C38.6755 74.0298 37.7786 73.6084 36.8271 73.3643C36.8271 73.2844 36.8271 73.2086 36.8271 73.1287C36.8249 71.2912 36.1687 69.5145 34.9759 68.1167C33.7832 66.719 32.1318 65.7914 30.3175 65.5003C28.5032 65.2091 26.6445 65.5733 25.0743 66.5276C23.504 67.482 22.3248 68.9641 21.7477 70.7086C21.6199 70.7086 21.4921 70.7086 21.3484 70.7086C19.3051 70.7181 17.3486 71.5357 15.9061 72.9827C14.4635 74.4298 13.6521 76.3888 13.6489 78.432C13.6489 78.5918 13.6489 78.7555 13.6489 78.9153C13.6814 79.4068 13.8995 79.8677 14.2592 80.2044C14.6189 80.5411 15.0931 80.7284 15.5858 80.7283H40.3454C40.658 80.7283 40.966 80.6527 41.2432 80.5081C41.5204 80.3634 41.7585 80.154 41.9373 79.8975C42.1161 79.6411 42.2303 79.3452 42.2702 79.0351C42.3101 78.7251 42.2745 78.4099 42.1664 78.1166C41.6257 76.7107 40.6895 75.4915 39.4708 74.6063Z" fill="url(#paint4_linear_5_3668)"/>
<path d="M60.5923 112.345L61.2952 114.469C59.6099 113.786 58.1004 113.115 56.7426 112.473C58.0365 112.469 59.3184 112.421 60.5923 112.345Z" fill="#363636"/>
<path d="M118.782 55.0502C118.329 51.0533 117.462 47.1145 116.194 43.2974C117.227 43.8008 118.12 44.5494 118.797 45.4778C121.038 48.5049 120.411 51.9992 118.782 55.0502Z" fill="#DD5D46"/>
<path d="M125.642 91.5107C125.151 95.3764 122.096 98.0002 118.985 99.945C111.326 104.737 105.116 105.476 95.0522 108.507C80.8154 112.792 75.54 113.016 68.0442 113.415C67.526 113.441 67.0117 113.313 66.5671 113.045C66.1224 112.778 65.7677 112.384 65.5483 111.913C90.4676 108.886 110.475 94.41 116.877 74.774C118.767 68.9053 119.469 62.7187 118.941 56.5757L119.057 56.6236C120.003 56.995 121.018 57.2187 121.884 57.7538C124.432 59.3232 126.233 64.367 124.64 67.0666C124.033 68.0929 122.975 68.7439 121.98 69.3988C121.858 69.4624 121.759 69.563 121.697 69.6863C121.569 70.0138 121.964 70.2814 122.28 70.4291C126.956 72.6096 128.27 79.2148 124.356 82.7291C123.959 83.0407 123.595 83.3927 123.27 83.7794C123.109 83.9752 123.001 84.2092 122.956 84.4588C122.912 84.7085 122.932 84.9654 123.015 85.205C123.205 85.5309 123.464 85.8116 123.773 86.0277C125.275 87.3495 125.898 89.514 125.642 91.5107Z" fill="#DD5D46"/>
<path d="M41.0881 43.2176V48.8085H46.4194V51.2046H41.0881V56.8234H38.5962V51.1646H33.2649V48.7685H38.5962V43.1776L41.0881 43.2176Z" fill="#DC3F0F"/>
<path d="M114.548 107.72V110.684H117.388V111.95H114.548V114.941H113.223V111.95H110.383V110.684H113.223V107.72H114.548Z" fill="#DC3F0F"/>
<path d="M16.7079 89.6577V92.6209H19.5472V93.8868H16.7079V96.8779H15.3621V93.8868H12.5227V92.6209H15.3621V89.6577H16.7079Z" fill="#363636"/>
<path d="M139.148 43.8125V46.7757H141.984V48.0376H139.148V51.0328H137.818V48.0376H134.983V46.7757H137.818V43.8125H139.148Z" fill="#E08D24"/>
<path d="M92.2966 5.51093V11.0778H97.6279V13.454H92.2966V19.0728H89.7887V13.454H84.4694V11.0778H89.7887V5.51093H92.2966Z" fill="white"/>
<path d="M37.4741 20.4586V23.4457H40.3494V24.7197H37.4741V27.7348H36.1522V24.7197H33.2969V23.4457H36.1522V20.4586H37.4741Z" fill="#E08D24"/>
</g>
<defs>
<linearGradient id="paint0_linear_5_3668" x1="147.571" y1="123.861" x2="-100.358" y2="28.7681" gradientUnits="userSpaceOnUse">
<stop stop-color="#1B9EB3"/>
<stop offset="1" stop-color="#07B7D2"/>
</linearGradient>
<linearGradient id="paint1_linear_5_3668" x1="138.581" y1="129.719" x2="132.901" y2="92.757" gradientUnits="userSpaceOnUse">
<stop stop-color="#1B9EB3"/>
<stop offset="1" stop-color="#07B7D2"/>
</linearGradient>
<linearGradient id="paint2_linear_5_3668" x1="133.439" y1="24.4387" x2="94.009" y2="-0.679481" gradientUnits="userSpaceOnUse">
<stop stop-color="#1B9EB3"/>
<stop offset="1" stop-color="#07B7D2"/>
</linearGradient>
<linearGradient id="paint3_linear_5_3668" x1="150.24" y1="104.5" x2="110.671" y2="79.4224" gradientUnits="userSpaceOnUse">
<stop stop-color="#1B9EB3"/>
<stop offset="1" stop-color="#07B7D2"/>
</linearGradient>
<linearGradient id="paint4_linear_5_3668" x1="42.2861" y1="80.0046" x2="2.74096" y2="54.9128" gradientUnits="userSpaceOnUse">
<stop stop-color="#1B9EB3"/>
<stop offset="1" stop-color="#07B7D2"/>
</linearGradient>
<clipPath id="clip0_5_3668">
<rect width="149.532" height="130" fill="white" transform="translate(0.733948)"/>
</clipPath>
</defs>
</svg>
