<svg width="32" height="36" viewBox="0 0 32 36" fill="none" xmlns="http://www.w3.org/2000/svg">
<path d="M11.6113 12.7365C11.1793 12.7361 10.7556 12.8517 10.3866 13.0706C10.6476 12.9895 10.929 12.9961 11.1856 13.0894C11.4422 13.1828 11.6592 13.3574 11.8017 13.5853C11.9442 13.8131 12.004 14.0811 11.9714 14.346C11.9389 14.6109 11.8159 14.8575 11.6222 15.0462C11.4285 15.2348 11.1753 15.3547 10.9033 15.3864C10.6313 15.4181 10.3563 15.3599 10.1223 15.221C9.8884 15.0822 9.70912 14.8709 9.61329 14.6209C9.51746 14.371 9.51063 14.0969 9.59391 13.8427C9.32316 14.2772 9.20786 14.7868 9.26604 15.2919C9.32422 15.797 9.5526 16.2691 9.91547 16.6343C10.2783 16.9996 10.7552 17.2374 11.2716 17.3106C11.788 17.3838 12.3147 17.2883 12.7694 17.039C13.2241 16.7897 13.5812 16.4006 13.7848 15.9326C13.9884 15.4646 14.0271 14.9441 13.8947 14.4525C13.7624 13.9609 13.4665 13.5258 13.0534 13.2153C12.6402 12.9048 12.1331 12.7365 11.6113 12.7365ZM16.0015 0.0017368C12.8146 0.00148651 9.70022 0.92821 7.05757 2.66313C4.41491 4.39805 2.36436 6.86212 1.16873 9.73952C-0.0268923 12.6169 -0.313118 15.7765 0.346745 18.8134C1.00661 21.8502 2.5825 24.626 4.87242 26.7848L3.11511 36L10.7153 30.301L12.9589 28.4653L11.3138 30.4902C13.5144 31.1464 15.8345 31.3325 18.1157 31.0359C20.3969 30.7392 22.5856 29.9667 24.5324 28.7712C26.4792 27.5756 28.1383 25.985 29.3966 24.1081C30.6549 22.2311 31.4827 20.1118 31.8235 17.8948C32.1644 15.6778 32.0102 13.4153 31.3717 11.2617C30.7331 9.10799 29.6251 7.11383 28.1232 5.41523C26.6214 3.71663 24.761 2.35357 22.6691 1.41903C20.5772 0.484493 18.3029 0.000475133 16.0015 0V0.0017368ZM26.7421 26.1151L22.4348 24.3323C20.1698 25.9141 17.3748 26.6038 14.6098 26.2632C11.8447 25.9225 9.31401 24.5767 7.52464 22.4955C5.73526 20.4142 4.81944 17.7512 4.96067 15.04C5.1019 12.3288 6.28975 9.7697 8.28621 7.87552C10.2827 5.98133 12.9403 4.89197 15.7265 4.82569C18.5127 4.75942 21.2217 5.72113 23.3107 7.51813C25.3997 9.31513 26.7144 11.8147 26.9913 14.5159C27.2682 17.2172 26.487 19.9206 24.804 22.0844L26.7421 26.1151ZM23.6934 14.2036C23.6936 14.4547 23.6122 14.6995 23.461 14.9028C23.3097 15.1062 23.0963 15.2578 22.8512 15.3359C22.6062 15.4139 22.342 15.4145 22.0966 15.3375C21.8512 15.2605 21.6371 15.1098 21.4849 14.9071C21.3327 14.7044 21.2503 14.46 21.2493 14.2089C21.2484 13.9577 21.329 13.7127 21.4797 13.509C21.6304 13.3052 21.8434 13.153 22.0882 13.0743C22.333 12.9955 22.5971 12.9942 22.8428 13.0706C22.3493 12.7787 21.7631 12.673 21.1951 12.7736C20.627 12.8741 20.1165 13.1739 19.76 13.6162C19.4035 14.0586 19.2257 14.6128 19.2603 15.1741C19.2948 15.7355 19.5394 16.265 19.9476 16.6627C20.3559 17.0603 20.8995 17.2985 21.4758 17.3322C22.0521 17.3658 22.6211 17.1927 23.0753 16.8454C23.5294 16.4982 23.8371 16.0009 23.9404 15.4476C24.0436 14.8943 23.9351 14.3234 23.6355 13.8427C23.6739 13.9593 23.6935 14.0811 23.6934 14.2036Z" fill="white"/>
</svg>
